<svg aria-hidden="true" style="position: absolute; width: 0; height: 0; overflow: hidden;" version="1.1" xmlns="http://www.w3.org/2000/svg" xmlns:xlink="http://www.w3.org/1999/xlink">
<defs>
<symbol id="icon-icon" viewBox="0 0 32 32">
<path d="M16.001-0.057c-4.29 0-8.322 1.67-11.355 4.703s-4.702 7.065-4.702 11.354c0 4.289 1.67 8.293 4.702 11.325s7.065 4.674 11.354 4.674c0 0 0.001 0 0.001 0h0.002c8.853 0 16.055-7.175 16.054-16.029 0.001-4.289-1.67-8.307-4.703-11.34-3.032-3.032-7.064-4.688-11.354-4.688zM16 31.056v0.5-0.556c-0.001 0-0.001 0-0.001 0-4.021 0-7.803-1.538-10.646-4.381-2.843-2.844-4.409-6.611-4.409-10.633s1.565-7.796 4.409-10.64 6.625-4.406 10.648-4.406c4.022 0 7.803 1.568 10.646 4.412s4.409 6.625 4.409 10.648c0 8.301-6.556 15.056-15.056 15.057z"></path>
<path d="M16 4.5c-3.072 0-5.96 1.197-8.132 3.369s-3.369 5.059-3.369 8.131h1c0-2.804 1.093-5.441 3.075-7.425s4.62-3.075 7.425-3.075 5.441 1.093 7.425 3.076c1.983 1.983 3.075 4.62 3.075 7.424h1c0-3.071-1.197-5.959-3.368-8.132s-5.060-3.369-8.132-3.369z"></path>
<path d="M15.379 16.146l-3-3.473-0.757 0.654 3.036 3.516c-0.1 0.204-0.159 0.428-0.158 0.663 0.002 0.401 0.159 0.776 0.444 1.058 0.283 0.28 0.658 0.435 1.056 0.435 0.404 0 0.781-0.157 1.066-0.444 0.581-0.587 0.578-1.539-0.009-2.121-0.439-0.435-1.127-0.528-1.678-0.288zM16.355 17.852c-0.188 0.189-0.518 0.191-0.707 0.003-0.095-0.094-0.148-0.22-0.148-0.353s0.051-0.259 0.146-0.354c0.094-0.096 0.22-0.148 0.354-0.148 0.133 0 0.258 0.052 0.352 0.145 0.196 0.194 0.197 0.511 0.003 0.706z"></path>
</symbol>
<symbol id="icon-icon1" viewBox="0 0 32 32">
<path d="M16 0c-8.822 0-16 7.178-16 16s7.178 16 16 16c8.822 0 16-7.178 16-16s-7.178-16-16-16zM30.584 12.5h-7.401c-0.783-1.601-2.082-2.899-3.683-3.683v-7.401c5.464 1.312 9.772 5.62 11.084 11.084zM31 16c0 0.852-0.075 1.686-0.212 2.5h-7.194c0.26-0.788 0.406-1.627 0.406-2.5s-0.146-1.713-0.406-2.5h7.194c0.137 0.813 0.212 1.648 0.212 2.5zM16 23c-3.86 0-7-3.14-7-7s3.14-7 7-7c3.86 0 7 3.14 7 7s-3.14 7-7 7zM8.406 18.5h-7.194c-0.137-0.814-0.212-1.648-0.212-2.5s0.075-1.687 0.212-2.5h7.194c-0.26 0.787-0.406 1.627-0.406 2.5s0.146 1.712 0.406 2.5zM18.5 1.212v7.194c-0.788-0.261-1.627-0.406-2.5-0.406s-1.713 0.146-2.5 0.406v-7.194c0.813-0.137 1.648-0.212 2.5-0.212s1.686 0.075 2.5 0.212zM12.5 1.417v7.401c-1.601 0.783-2.899 2.082-3.683 3.683h-7.401c1.312-5.464 5.62-9.772 11.084-11.084zM1.417 19.5h7.401c0.783 1.601 2.082 2.899 3.683 3.683v7.401c-5.464-1.311-9.772-5.62-11.084-11.084zM13.5 30.788v-7.194c0.787 0.261 1.627 0.406 2.5 0.406s1.712-0.145 2.5-0.406v7.194c-0.814 0.137-1.648 0.212-2.5 0.212s-1.687-0.075-2.5-0.212zM19.5 30.584v-7.401c1.601-0.783 2.899-2.082 3.683-3.683h7.401c-1.311 5.464-5.62 9.772-11.084 11.084z"></path>
</symbol>
<symbol id="icon-icon2" viewBox="0 0 22 32">
<path d="M15 32v-3h1v-3h1v-3l0-2.779c3.136-2.041 5-5.468 5-9.221 0-6.066-4.934-11-11-11s-11 4.934-11 11c0 3.729 1.909 7.257 5 9.275v5.725h1v3h1v3h8zM14 31h-6v-2h6v2zM5.762 19.574c-2.938-1.809-4.762-5.094-4.762-8.574 0-5.514 4.486-10 10-10s10 4.486 10 10c0 3.498-1.78 6.683-4.761 8.521l-0.238 0.146v2.333h-2.419l1.414-9.426-0.989-0.149-0.054 0.361-1.405 1.053-1.546-1.546-1.547 1.547-1.405-1.053-0.054-0.361-0.989 0.149 1.415 9.425h-2.42v-2.279l-0.238-0.146zM9.431 22l-1.171-7.805 1.287 0.966 1.453-1.454 1.453 1.453 1.287-0.966-1.171 7.806h-3.139zM6 23h10v2h-10v-2zM7 26h8v2h-8v-2z"></path>
</symbol>
</defs>
</svg>
